<svg width="24" height="24" viewBox="0 0 24 24" fill="none" xmlns="http://www.w3.org/2000/svg">
<path d="M4.17383 7.30444H5.88811H19.826" stroke="white" stroke-width="2" stroke-linecap="round" stroke-linejoin="round"/>
<path d="M8.34794 7.30333V5.88814C8.34794 5.43348 8.52855 3.95396 8.85005 3.63247C9.17154 3.31098 9.60757 3.13037 10.0622 3.13037H13.938C14.3926 3.13037 14.8287 3.31098 15.1502 3.63247C15.4717 3.95396 15.6523 5.43348 15.6523 5.88814V7.30333M17.7392 7.30333V19.16C17.7392 19.6147 17.5388 20.0507 17.2173 20.3722C16.8958 20.6937 16.4597 20.8743 16.0051 20.8743H7.97527C7.52062 20.8743 7.08458 20.6937 6.76309 20.3722C6.4416 20.0507 6.26099 19.6147 6.26099 19.16V7.30333H17.7392Z" stroke="white" stroke-width="2" stroke-linecap="round" stroke-linejoin="round"/>
</svg>
